<mxfile host="app.diagrams.net" agent="Mozilla/5.0 (Windows NT 10.0; Win64; x64) AppleWebKit/537.36 (KHTML, like Gecko) Chrome/128.0.0.0 Safari/537.36 Edg/128.0.0.0" version="24.7.15">
  <diagram name="Страница — 1" id="RiNldU15HpcVoyJYfxmf">
    <mxGraphModel dx="1184" dy="1012" grid="1" gridSize="10" guides="1" tooltips="1" connect="1" arrows="1" fold="1" page="1" pageScale="1" pageWidth="827" pageHeight="1169" math="0" shadow="0">
      <root>
        <mxCell id="0" />
        <mxCell id="1" parent="0" />
        <mxCell id="3" value="Рабочее положение &#xa;включить/выключить" style="shape=table;startSize=110;container=1;collapsible=0;childLayout=tableLayout;fixedRows=1;rowLines=1;fontStyle=1;align=center;resizeLast=1;" parent="1" vertex="1">
          <mxGeometry x="20" y="225" width="140" height="110" as="geometry" />
        </mxCell>
        <mxCell id="0FDGuPMrHh6v5uQJFrAX-9" value="Начало работы программы" style="ellipse;whiteSpace=wrap;html=1;" vertex="1" parent="1">
          <mxGeometry x="300" y="40" width="180" height="90" as="geometry" />
        </mxCell>
        <mxCell id="0FDGuPMrHh6v5uQJFrAX-13" style="edgeStyle=orthogonalEdgeStyle;rounded=0;orthogonalLoop=1;jettySize=auto;html=1;exitX=0;exitY=0.5;exitDx=0;exitDy=0;entryX=1;entryY=0.5;entryDx=0;entryDy=0;" edge="1" parent="1" source="0FDGuPMrHh6v5uQJFrAX-10" target="3">
          <mxGeometry relative="1" as="geometry" />
        </mxCell>
        <mxCell id="0FDGuPMrHh6v5uQJFrAX-17" style="edgeStyle=orthogonalEdgeStyle;rounded=0;orthogonalLoop=1;jettySize=auto;html=1;exitX=1;exitY=0.5;exitDx=0;exitDy=0;entryX=0;entryY=0.5;entryDx=0;entryDy=0;" edge="1" parent="1" source="0FDGuPMrHh6v5uQJFrAX-10" target="0FDGuPMrHh6v5uQJFrAX-16">
          <mxGeometry relative="1" as="geometry" />
        </mxCell>
        <mxCell id="0FDGuPMrHh6v5uQJFrAX-10" value="&lt;span style=&quot;font-weight: 700; text-wrap: nowrap;&quot;&gt;Пользователь переводит&amp;nbsp;&lt;/span&gt;&lt;div&gt;&lt;span style=&quot;font-weight: 700; text-wrap: nowrap;&quot;&gt;освещение в автоматический режим?&lt;/span&gt;&lt;/div&gt;" style="rhombus;whiteSpace=wrap;html=1;" vertex="1" parent="1">
          <mxGeometry x="245" y="180" width="290" height="200" as="geometry" />
        </mxCell>
        <mxCell id="0FDGuPMrHh6v5uQJFrAX-14" value="Нет" style="text;strokeColor=none;align=center;fillColor=none;html=1;verticalAlign=middle;whiteSpace=wrap;rounded=0;" vertex="1" parent="1">
          <mxGeometry x="200" y="250" width="60" height="30" as="geometry" />
        </mxCell>
        <mxCell id="0FDGuPMrHh6v5uQJFrAX-15" style="edgeStyle=orthogonalEdgeStyle;rounded=0;orthogonalLoop=1;jettySize=auto;html=1;exitX=0.5;exitY=1;exitDx=0;exitDy=0;entryX=0.5;entryY=0;entryDx=0;entryDy=0;" edge="1" parent="1" source="0FDGuPMrHh6v5uQJFrAX-9" target="0FDGuPMrHh6v5uQJFrAX-10">
          <mxGeometry relative="1" as="geometry" />
        </mxCell>
        <mxCell id="0FDGuPMrHh6v5uQJFrAX-19" style="edgeStyle=orthogonalEdgeStyle;rounded=0;orthogonalLoop=1;jettySize=auto;html=1;exitX=1;exitY=0.5;exitDx=0;exitDy=0;" edge="1" parent="1" source="0FDGuPMrHh6v5uQJFrAX-16">
          <mxGeometry relative="1" as="geometry">
            <mxPoint x="900" y="350" as="targetPoint" />
          </mxGeometry>
        </mxCell>
        <mxCell id="0FDGuPMrHh6v5uQJFrAX-20" style="edgeStyle=orthogonalEdgeStyle;rounded=0;orthogonalLoop=1;jettySize=auto;html=1;exitX=1;exitY=0.5;exitDx=0;exitDy=0;" edge="1" parent="1" source="0FDGuPMrHh6v5uQJFrAX-16">
          <mxGeometry relative="1" as="geometry">
            <mxPoint x="1100" y="350" as="targetPoint" />
            <mxPoint x="840" y="280" as="sourcePoint" />
          </mxGeometry>
        </mxCell>
        <mxCell id="0FDGuPMrHh6v5uQJFrAX-21" style="edgeStyle=orthogonalEdgeStyle;rounded=0;orthogonalLoop=1;jettySize=auto;html=1;exitX=1;exitY=0.5;exitDx=0;exitDy=0;" edge="1" parent="1" source="0FDGuPMrHh6v5uQJFrAX-16">
          <mxGeometry relative="1" as="geometry">
            <mxPoint x="1390" y="360" as="targetPoint" />
            <Array as="points">
              <mxPoint x="1390" y="280" />
              <mxPoint x="1390" y="351" />
            </Array>
          </mxGeometry>
        </mxCell>
        <mxCell id="0FDGuPMrHh6v5uQJFrAX-16" value="&amp;nbsp;Процесс регулирования света" style="rounded=0;whiteSpace=wrap;html=1;" vertex="1" parent="1">
          <mxGeometry x="640" y="250" width="130" height="60" as="geometry" />
        </mxCell>
        <mxCell id="0FDGuPMrHh6v5uQJFrAX-18" value="Да" style="text;strokeColor=none;align=center;fillColor=none;html=1;verticalAlign=middle;whiteSpace=wrap;rounded=0;" vertex="1" parent="1">
          <mxGeometry x="530" y="250" width="60" height="30" as="geometry" />
        </mxCell>
        <mxCell id="0FDGuPMrHh6v5uQJFrAX-22" value="" style="rounded=0;whiteSpace=wrap;html=1;" vertex="1" parent="1">
          <mxGeometry x="840" y="350" width="120" height="60" as="geometry" />
        </mxCell>
        <mxCell id="0FDGuPMrHh6v5uQJFrAX-28" style="edgeStyle=orthogonalEdgeStyle;rounded=0;orthogonalLoop=1;jettySize=auto;html=1;exitX=1;exitY=0.5;exitDx=0;exitDy=0;exitPerimeter=0;" edge="1" parent="1" source="0FDGuPMrHh6v5uQJFrAX-24" target="0FDGuPMrHh6v5uQJFrAX-29">
          <mxGeometry relative="1" as="geometry">
            <mxPoint x="1730" y="622.6666666666667" as="targetPoint" />
          </mxGeometry>
        </mxCell>
        <mxCell id="0FDGuPMrHh6v5uQJFrAX-31" style="edgeStyle=orthogonalEdgeStyle;rounded=0;orthogonalLoop=1;jettySize=auto;html=1;exitX=0.5;exitY=1;exitDx=0;exitDy=0;exitPerimeter=0;entryX=0.5;entryY=0;entryDx=0;entryDy=0;" edge="1" parent="1" source="0FDGuPMrHh6v5uQJFrAX-24" target="0FDGuPMrHh6v5uQJFrAX-30">
          <mxGeometry relative="1" as="geometry" />
        </mxCell>
        <mxCell id="0FDGuPMrHh6v5uQJFrAX-24" value="В помещении достаточный уровень освещения?" style="strokeWidth=2;html=1;shape=mxgraph.flowchart.decision;whiteSpace=wrap;" vertex="1" parent="1">
          <mxGeometry x="1220" y="500" width="340" height="245" as="geometry" />
        </mxCell>
        <mxCell id="0FDGuPMrHh6v5uQJFrAX-26" value="Работа датчика освещенности" style="rounded=0;whiteSpace=wrap;html=1;" vertex="1" parent="1">
          <mxGeometry x="1330" y="360" width="120" height="60" as="geometry" />
        </mxCell>
        <mxCell id="0FDGuPMrHh6v5uQJFrAX-27" style="edgeStyle=orthogonalEdgeStyle;rounded=0;orthogonalLoop=1;jettySize=auto;html=1;exitX=0.5;exitY=1;exitDx=0;exitDy=0;entryX=0.5;entryY=0;entryDx=0;entryDy=0;entryPerimeter=0;" edge="1" parent="1" source="0FDGuPMrHh6v5uQJFrAX-26" target="0FDGuPMrHh6v5uQJFrAX-24">
          <mxGeometry relative="1" as="geometry" />
        </mxCell>
        <mxCell id="0FDGuPMrHh6v5uQJFrAX-29" value="Остановка функции" style="rounded=0;whiteSpace=wrap;html=1;" vertex="1" parent="1">
          <mxGeometry x="1670" y="592.6666666666667" width="120" height="60" as="geometry" />
        </mxCell>
        <mxCell id="0FDGuPMrHh6v5uQJFrAX-34" style="edgeStyle=orthogonalEdgeStyle;rounded=0;orthogonalLoop=1;jettySize=auto;html=1;exitX=0.5;exitY=1;exitDx=0;exitDy=0;" edge="1" parent="1" source="0FDGuPMrHh6v5uQJFrAX-30">
          <mxGeometry relative="1" as="geometry">
            <mxPoint x="1390" y="970" as="targetPoint" />
          </mxGeometry>
        </mxCell>
        <mxCell id="0FDGuPMrHh6v5uQJFrAX-30" value="Регулирование освещения" style="rounded=0;whiteSpace=wrap;html=1;" vertex="1" parent="1">
          <mxGeometry x="1330" y="830" width="120" height="60" as="geometry" />
        </mxCell>
        <mxCell id="0FDGuPMrHh6v5uQJFrAX-32" value="Да" style="text;strokeColor=none;align=center;fillColor=none;html=1;verticalAlign=middle;whiteSpace=wrap;rounded=0;" vertex="1" parent="1">
          <mxGeometry x="1550" y="585" width="60" height="30" as="geometry" />
        </mxCell>
        <mxCell id="0FDGuPMrHh6v5uQJFrAX-33" value="Нет" style="text;strokeColor=none;align=center;fillColor=none;html=1;verticalAlign=middle;whiteSpace=wrap;rounded=0;" vertex="1" parent="1">
          <mxGeometry x="1390" y="745" width="60" height="30" as="geometry" />
        </mxCell>
        <mxCell id="0FDGuPMrHh6v5uQJFrAX-36" style="edgeStyle=orthogonalEdgeStyle;rounded=0;orthogonalLoop=1;jettySize=auto;html=1;exitX=0;exitY=0.5;exitDx=0;exitDy=0;exitPerimeter=0;entryX=0;entryY=0.5;entryDx=0;entryDy=0;" edge="1" parent="1" source="0FDGuPMrHh6v5uQJFrAX-35" target="0FDGuPMrHh6v5uQJFrAX-30">
          <mxGeometry relative="1" as="geometry">
            <mxPoint x="1230" y="860" as="targetPoint" />
          </mxGeometry>
        </mxCell>
        <mxCell id="0FDGuPMrHh6v5uQJFrAX-40" style="edgeStyle=orthogonalEdgeStyle;rounded=0;orthogonalLoop=1;jettySize=auto;html=1;exitX=1;exitY=0.5;exitDx=0;exitDy=0;exitPerimeter=0;entryX=0.5;entryY=1;entryDx=0;entryDy=0;" edge="1" parent="1" source="0FDGuPMrHh6v5uQJFrAX-35" target="0FDGuPMrHh6v5uQJFrAX-29">
          <mxGeometry relative="1" as="geometry" />
        </mxCell>
        <mxCell id="0FDGuPMrHh6v5uQJFrAX-35" value="&lt;font&gt;Оптимальный уровень&amp;nbsp;&lt;/font&gt;&lt;div&gt;освещения?&lt;/div&gt;" style="strokeWidth=2;html=1;shape=mxgraph.flowchart.decision;whiteSpace=wrap;" vertex="1" parent="1">
          <mxGeometry x="1285" y="970" width="210" height="170" as="geometry" />
        </mxCell>
        <mxCell id="0FDGuPMrHh6v5uQJFrAX-38" value="Нет" style="text;strokeColor=none;align=center;fillColor=none;html=1;verticalAlign=middle;whiteSpace=wrap;rounded=0;" vertex="1" parent="1">
          <mxGeometry x="1250" y="1020" width="60" height="30" as="geometry" />
        </mxCell>
        <mxCell id="0FDGuPMrHh6v5uQJFrAX-39" value="Да" style="text;strokeColor=none;align=center;fillColor=none;html=1;verticalAlign=middle;whiteSpace=wrap;rounded=0;" vertex="1" parent="1">
          <mxGeometry x="1490" y="1020" width="60" height="30" as="geometry" />
        </mxCell>
      </root>
    </mxGraphModel>
  </diagram>
</mxfile>
